<svg width="16" height="16" viewBox="0 0 16 16" fill="none" xmlns="http://www.w3.org/2000/svg">
<path fill-rule="evenodd" clip-rule="evenodd" d="M12.6 5C13.374 5 14 5.626 14 6.4V12.6C14 13.374 13.374 14 12.6 14H3.4C2.626 14 2 13.374 2 12.6V6.4C2 5.625 2.626 5 3.4 5H12.6ZM11 11H5V12H11V11ZM5.889 7.134C5.213 7.134 4.667 7.717 4.667 8.437C4.667 9.157 5.213 9.741 5.889 9.741C6.564 9.741 7.111 9.158 7.111 8.437C7.111 7.717 6.564 7.134 5.889 7.134ZM10.111 7.134C9.436 7.134 8.889 7.717 8.889 8.437C8.889 9.157 9.436 9.741 10.111 9.741C10.787 9.741 11.333 9.158 11.333 8.437C11.333 7.717 10.787 7.134 10.111 7.134Z" fill="white"/>
<path fill-rule="evenodd" clip-rule="evenodd" d="M9 3C9 3.553 8.552 4 8 4C7.447 4 7 3.553 7 3C7 2.447 7.447 2 8 2C8.552 2 9 2.447 9 3ZM8 5.184V4V5.184Z" fill="white"/>
<path d="M8 4C8.552 4 9 3.553 9 3C9 2.447 8.552 2 8 2C7.447 2 7 2.447 7 3C7 3.553 7.447 4 8 4ZM8 4V5.184" stroke="white" stroke-width="0.833333" stroke-linecap="round" stroke-linejoin="round"/>
</svg>
