<svg width="48" height="11" viewBox="0 0 48 11" xmlns="http://www.w3.org/2000/svg">
    <g fill="none" fill-rule="evenodd">
        <path d="M16.242 1.744c1.532 0 2.419.841 2.419 1.974 0 .758-.504 1.381-1.138 1.578.7.156 1.379.77 1.379 1.725 0 1.193-.944 2.07-2.386 2.087h-3.174V1.745h2.9zm-.131 4.3h-1.084V7.77h1.084c.667 0 1.072-.333 1.072-.863 0-.503-.386-.855-1.052-.862h-.02zm-.165-2.94h-.919v1.59h.941c.602 0 .996-.301.996-.8 0-.473-.332-.783-.997-.79h-.02zM20.306 3.301c.547 0 .984-.415.984-.924 0-.51-.437-.925-.984-.925-.524 0-.96.416-.96.925 0 .509.436.924.96.924zM21.153 9.109V3.95h-1.671V9.11zM23.663 9.109V6.85c0-1.03.6-1.405 1.265-1.405.164 0 .338.01.523.052v-1.56a1.711 1.711 0 0 0-.436-.053c-.436 0-1.123.167-1.406.75v-.698h-1.603V9.11h1.657zM31.275 1.582v6.667l.001.06v.038l.002.057.001.054.002.036.002.068.003.066.003.062.004.072.005.08.006.082.006.07.009.098h-1.591l-.004-.025-.008-.05-.004-.036-.005-.04-.005-.044-.003-.023-.004-.048-.002-.025-.003-.038-.001-.025-.002-.026-.001-.04-.002-.039v-.039c-.25.353-.795.612-1.45.612-1.525 0-2.68-1.12-2.68-2.707 0-1.536 1.09-2.687 2.626-2.687.713 0 1.117.197 1.324.377l.016.014c.015.014.03.028.042.042l.013.013a.778.778 0 0 1 .012.014l.011.013a.705.705 0 0 1 .011.013l.01.013.009.012.009.012.004.006v-2.76h1.634zm-2.833 3.651c-.643 0-1.22.415-1.22 1.276 0 .85.577 1.286 1.22 1.286s1.22-.435 1.22-1.286c0-.861-.577-1.276-1.22-1.276zM34.435 3.788c1.68 0 2.717.988 2.717 2.653 0 .218-.022.458-.033.489h-3.776c.033.583.59.999 1.234.999.6 0 .938-.27 1.09-.677l1.387.375c-.262.895-1.124 1.644-2.5 1.644-1.494 0-2.826-1.02-2.826-2.757 0-1.665 1.299-2.726 2.707-2.726zm.022 1.248c-.699 0-1.048.49-1.08.874h2.17c-.021-.395-.305-.874-1.09-.874z" fill="#212121" fill-rule="nonzero"/>
        <path fill="#212121" fill-rule="nonzero" d="m39.608 11.088 3.343-7.138h-1.759L39.99 6.71l-1.322-2.76h-1.857l2.283 4.461-1.234 2.677zM45.283 3.788c1.68 0 2.717.988 2.717 2.653 0 .218-.022.458-.033.489h-3.776c.033.583.59.999 1.233.999.6 0 .939-.27 1.092-.677l1.386.375c-.262.895-1.124 1.644-2.5 1.644-1.495 0-2.826-1.02-2.826-2.757 0-1.665 1.299-2.726 2.707-2.726zm.021 1.248c-.698 0-1.047.49-1.08.874h2.172c-.022-.395-.306-.874-1.092-.874z"/>
        <path d="M6.864 5.44v-.001h-.002a1.255 1.255 0 0 0-.071-.027l-2.444-.918a.564.564 0 0 0-.219-.043c-.298 0-.54.228-.54.51 0 .116.042.222.112.308l.004.005a.52.52 0 0 0 .04.043l1.751 1.901c.219.233.537.38.892.38.659 0 1.193-.504 1.193-1.126 0-.462-.295-.86-.716-1.033m-.805-3.833c.554-.165 1.15.107 1.333.607.183.5-.119 1.04-.673 1.204-.554.165-1.15-.107-1.333-.607-.183-.5.119-1.04.673-1.204m3.835.61a.565.565 0 0 0-.325-.207v-.002L9.09 1.89c-.007-.022-.011-.043-.019-.064C8.576.432 6.952-.325 5.446.134a2.797 2.797 0 0 0-1.699 1.392l-.863 1.302-2.048-.767-.002.001a.644.644 0 0 0-.42-.017c-.316.096-.488.411-.384.704a.54.54 0 0 0 .062.118l-.004.004 2.138 2.686.005.007c.001.003.004.005.006.007l1.53 2.035c.667 1.133 2.113 1.815 3.509 1.39 1.506-.458 2.326-1.958 1.83-3.35a2.626 2.626 0 0 0-.754-1.098c.423-.383.71-.878.817-1.414l.462-.127v-.005a.585.585 0 0 0 .119-.056.5.5 0 0 0 .144-.73" fill="#1976D2"/>
    </g>
</svg>
