<svg width="16" height="16" viewBox="0 0 16 16" fill="none" xmlns="http://www.w3.org/2000/svg">
<path fill-rule="evenodd" clip-rule="evenodd" d="M13.5 12.66C13.5 13.1286 13.1481 13.5 12.6694 13.5C12.4386 13.5 12.2252 13.42 12.0579 13.26L9.53146 10.7514C8.8162 11.22 7.95674 11.4943 7.03959 11.4943C4.54195 11.4943 2.5 9.47143 2.5 6.99714C2.5 4.52286 4.54195 2.5 7.03959 2.5C9.53723 2.5 11.5792 4.52286 11.5792 6.99714C11.5792 7.95714 11.2735 8.84857 10.7543 9.57429L13.2635 12.0714C13.425 12.2314 13.5 12.4429 13.5 12.66ZM3.71133 6.99714C3.71133 8.80857 5.21106 10.2943 7.03959 10.2943C8.86812 10.2943 10.3679 8.80857 10.3679 6.99714C10.3679 5.19143 8.86812 3.7 7.03959 3.7C5.21106 3.7 3.71133 5.19143 3.71133 6.99714Z" fill="#555555"/>
</svg>
