<svg xmlns="http://www.w3.org/2000/svg" width="196" height="178" viewBox="0 0 196 178">
    <defs>
        <filter id="a" width="115.8%" height="108.8%" x="-7.9%" y="-4.1%" filterUnits="objectBoundingBox">
            <feOffset dy="2" in="SourceAlpha" result="shadowOffsetOuter1"/>
            <feGaussianBlur in="shadowOffsetOuter1" result="shadowBlurOuter1" stdDeviation="4"/>
            <feColorMatrix in="shadowBlurOuter1" result="shadowMatrixOuter1" values="0 0 0 0 0 0 0 0 0 0 0 0 0 0 0 0 0 0 0.22 0"/>
            <feMerge>
                <feMergeNode in="shadowMatrixOuter1"/>
                <feMergeNode in="SourceGraphic"/>
            </feMerge>
        </filter>
    </defs>
    <g fill="none" fill-rule="evenodd" filter="url(#a)" transform="translate(-52 -218)">
        <path fill="#ECEFF1" d="M68.434 224.322h95.185a7.66 7.66 0 0 1 7.66 7.661v10.725a7.66 7.66 0 0 1-7.66 7.661H60.773v-18.386a7.66 7.66 0 0 1 7.66-7.66z"/>
        <path stroke="#212121" stroke-linecap="square" stroke-width=".64" d="M70.56 233.92h90.88M70.56 240.96h65.28"/>
        <g>
            <path fill="#2196F3" d="M86.245 259.434h108.254a7.66 7.66 0 0 1 7.661 7.661v21.523H86.245a7.66 7.66 0 0 1-7.66-7.66v-13.863a7.66 7.66 0 0 1 7.66-7.66z"/>
            <path stroke="#FFF" stroke-linecap="square" stroke-width=".64" d="M88.48 269.12h103.68M88.48 277.76h39.68"/>
        </g>
        <g>
            <path d="M179.745 303.697s2.79-.184 3.15-3.217c1.376-.31 2.063-4.601 1.102-8.674-.466-1.976-1.528-3.783-3.15-5.004-4.812-3.623-11.447-.523-11.447-.523s-6.552-.509-6.682 6.739c-.2 11.14 3.37 10.73 3.37 10.73l13.657-.05z"/>
            <path stroke="#000" stroke-width=".5" d="M179.745 303.697s2.79-.184 3.15-3.217c1.376-.31 2.063-4.601 1.102-8.674-.466-1.976-1.528-3.783-3.15-5.004-4.812-3.623-11.447-.523-11.447-.523s-6.552-.509-6.682 6.739c-.2 11.14 3.37 10.73 3.37 10.73l13.657-.05z"/>
            <path stroke="#FFF" stroke-linecap="round" stroke-linejoin="round" stroke-width=".5" d="M167.686 291.245s-.162-1.411.58-3.127"/>
            <path fill="#FFF" d="M153.162 372.111h38.256V358.6h-38.256z"/>
            <path stroke="#000" stroke-width=".5" d="M153.162 372.111h38.256V358.6h-38.256z"/>
            <path fill="#FFF" d="M181.248 304.868s2.089.982 2.273-3.074a2.408 2.408 0 0 0-.292-1.309c-1.033-1.803-1.981 2.479-1.981 2.479v1.904z"/>
            <path stroke="#000" stroke-linecap="round" stroke-linejoin="round" stroke-width=".5" d="M181.248 304.868s2.089.982 2.273-3.074a2.408 2.408 0 0 0-.292-1.309c-1.033-1.803-1.981 2.479-1.981 2.479v1.904z"/>
            <path fill="#FFF" d="M173.65 385.623h26.742s2.35-2.175 3.036-4.623c.546-1.948-.634-3.962-2.572-4.542-3.817-1.143-8.417-.63-8.417-.63l-18.788 9.795z"/>
            <path stroke="#000" stroke-linecap="round" stroke-linejoin="round" stroke-width=".5" d="M173.65 385.623h26.742s2.35-2.175 3.036-4.623c.546-1.948-.634-3.962-2.572-4.542-3.817-1.143-8.417-.63-8.417-.63l-18.788 9.795zM187.962 376.865s1.148 1.763-.732 4.741M190.305 376.947s1.272 1.765-.608 4.743M192.745 377.1s1.214 1.92-.666 4.898"/>
            <path fill="#FFF" d="M180.84 375.58l-4.891 10.008-2.38.035-29.127-10.988s-9.578-4.412-12.887-9.52c-3.309-5.108-1.742-13.8 6.792-12.755 5.65.691 16.66 5.398 16.66 5.398l2.072 4.595 23.761 13.227z"/>
            <path stroke="#000" stroke-width=".5" d="M180.84 375.58l-4.891 10.008-2.38.035-29.127-10.988s-9.578-4.412-12.887-9.52c-3.309-5.108-1.742-13.8 6.792-12.755 5.65.691 16.66 5.398 16.66 5.398l2.072 4.595 23.761 13.227z"/>
            <path fill="#FFF" d="M166.461 375.58l4.892 10.008 2.38.035 29.127-10.988s9.578-4.412 12.887-9.52c3.309-5.108 1.741-13.8-6.792-12.755-5.65.691-16.66 5.398-16.66 5.398l-2.073 4.595-23.76 13.227z"/>
            <path stroke="#000" stroke-width=".5" d="M166.461 375.58l4.892 10.008 2.38.035 29.127-10.988s9.578-4.412 12.887-9.52c3.309-5.108 1.741-13.8-6.792-12.755-5.65.691-16.66 5.398-16.66 5.398l-2.073 4.595-23.76 13.227z"/>
            <path fill="#FFF" d="M185.72 353.282l1.357-19.753 5.766 8.644-7.123 11.109zm-27.512-7.706l-5.269-3.35 4.415-8.249.854 11.599zm44.656-7.554c-1.546-2.87-3.443-6.409-5.211-9.753-3.897-7.373-5.161-12.429-13.377-13.061-8.216-.632-14.325-.527-21.277 0-6.952.527-10.218 2.528-16.432 14.43-2.627 5.03-4.576 9.347-5.951 12.653a8.392 8.392 0 0 0 3.779 10.62l10.809 5.8 35.603 3.897 11.307-13.15a10.79 10.79 0 0 0 .75-11.436z"/>
            <path stroke="#000" stroke-linecap="round" stroke-linejoin="round" stroke-width=".5" d="M185.72 353.282l1.357-19.753 5.766 8.644-7.123 11.109zm-27.512-7.706l-5.269-3.35 4.415-8.249.854 11.599zm44.656-7.554c-1.546-2.87-3.443-6.409-5.211-9.753-3.897-7.373-5.161-12.429-13.377-13.061-8.216-.632-14.325-.527-21.277 0-6.952.527-10.218 2.528-16.432 14.43-2.627 5.03-4.576 9.347-5.951 12.653a8.392 8.392 0 0 0 3.779 10.62l10.809 5.8 35.603 3.897 11.307-13.15a10.79 10.79 0 0 0 .75-11.436z"/>
            <path fill="#FFF" d="M168.909 309.397l-.567 6.754s.167 3.38 4.684 3.568c5.206.217 5.206-3.853 5.206-3.853l-.366-6.511-8.957.042z"/>
            <path stroke="#000" stroke-linecap="round" stroke-linejoin="round" stroke-width=".5" d="M168.909 309.397l-.567 6.754s.167 3.38 4.684 3.568c5.206.217 5.206-3.853 5.206-3.853l-.366-6.511-8.957.042z"/>
            <path fill="#FFF" d="M164.017 376.926l-3.74 1.527-10.752-2.933c-3.242-.995-6.6 1.434-6.513 4.824.038 1.495.178 3.262 1.819 5.279h24.119l-4.933-8.697z"/>
            <path stroke="#000" stroke-linecap="round" stroke-linejoin="round" stroke-width=".5" d="M164.017 376.926l-3.74 1.527-10.752-2.933c-3.242-.995-6.6 1.434-6.513 4.824.038 1.495.178 3.262 1.819 5.279h24.119l-4.933-8.697z"/>
            <path fill="#FFF" d="M172.778 385.684l-5.101-.061-3.875-8.608a1.096 1.096 0 0 1 .55-1.449l2.228-1.003a1.096 1.096 0 0 1 1.45.55l4.748 10.571z"/>
            <path stroke="#000" stroke-linecap="round" stroke-linejoin="round" stroke-width=".5" d="M172.778 385.684l-5.101-.061-3.875-8.608a1.096 1.096 0 0 1 .55-1.449l2.228-1.003a1.096 1.096 0 0 1 1.45.55l4.748 10.571zM149.463 340.804s.948-.064 4.74 3.212"/>
            <path fill="#FFF" d="M233.005 365.92s-4.606 4.184-3.284 7.554c1.322 3.369 4.018 1.288 3.942-2.53-.076-3.817-.658-5.024-.658-5.024"/>
            <path stroke="#000" stroke-width=".5" d="M233.005 365.92s-4.606 4.184-3.284 7.554c1.322 3.369 4.018 1.288 3.942-2.53-.076-3.817-.658-5.024-.658-5.024z"/>
            <path fill="#FFF" d="M234.704 370.28s-4.259.657-4.784 3.108c-.525 2.45 1.828 2.28 3.243.046 1.416-2.233 1.541-3.153 1.541-3.153"/>
            <path stroke="#000" stroke-width=".5" d="M234.704 370.28s-4.259.657-4.784 3.108c-.525 2.45 1.828 2.28 3.243.046 1.416-2.233 1.541-3.153 1.541-3.153z"/>
            <path fill="#FFF" d="M228.254 365.52s-4.687 4.163-3.392 7.543c1.296 3.38 4.035 1.31 4-2.51-.035-3.822-.608-5.034-.608-5.034"/>
            <path stroke="#000" stroke-width=".5" d="M228.254 365.52s-4.687 4.163-3.392 7.543c1.296 3.38 4.035 1.31 4-2.51-.035-3.822-.608-5.034-.608-5.034z"/>
            <path fill="#FFF" d="M220.2 366.004s-2.249 3.87-.61 5.894c1.638 2.024 3.034.01 2.153-2.59-.88-2.603-1.542-3.304-1.542-3.304"/>
            <path stroke="#000" stroke-width=".5" d="M220.2 366.004s-2.249 3.87-.61 5.894c1.638 2.024 3.034.01 2.153-2.59-.88-2.603-1.542-3.304-1.542-3.304z"/>
            <path fill="#FFF" d="M223.475 365.949s-2.523 5.688.047 8.236c2.57 2.55 4.196-.444 2.584-3.905-1.61-3.462-2.63-4.331-2.63-4.331"/>
            <path stroke="#000" stroke-width=".5" d="M223.475 365.949s-2.523 5.688.047 8.236c2.57 2.55 4.196-.444 2.584-3.905-1.61-3.462-2.63-4.331-2.63-4.331z"/>
            <path fill="#FFF" d="M225.572 366.158s-3.242 2.46-2.576 4.73c.666 2.272 2.542 1.072 2.714-1.419.171-2.491-.138-3.311-.138-3.311"/>
            <path stroke="#000" stroke-width=".5" d="M225.572 366.158s-3.242 2.46-2.576 4.73c.666 2.272 2.542 1.072 2.714-1.419.171-2.491-.138-3.311-.138-3.311z"/>
            <path fill="#FFF" d="M222.349 366.91s-2.959 3.36-1.745 5.663c1.214 2.303 2.975.6 2.616-2.123-.358-2.723-.871-3.54-.871-3.54"/>
            <path stroke="#000" stroke-width=".5" d="M222.349 366.91s-2.959 3.36-1.745 5.663c1.214 2.303 2.975.6 2.616-2.123-.358-2.723-.871-3.54-.871-3.54z"/>
            <path fill="#FFF" d="M217.096 369.126s1.11 4.936 4.024 5.353c2.913.418 2.523-2.324-.207-3.802-2.73-1.478-3.817-1.55-3.817-1.55"/>
            <path stroke="#000" stroke-width=".5" d="M217.096 369.126s1.11 4.936 4.024 5.353c2.913.418 2.523-2.324-.207-3.802-2.73-1.478-3.817-1.55-3.817-1.55z"/>
            <path fill="#FFF" d="M216.227 371.15s1.196 3.29 3.232 3.32c2.036.03 1.527-1.817-.476-2.591-2.004-.775-2.756-.73-2.756-.73"/>
            <path stroke="#000" stroke-width=".5" d="M216.227 371.15s1.196 3.29 3.232 3.32c2.036.03 1.527-1.817-.476-2.591-2.004-.775-2.756-.73-2.756-.73z"/>
            <path fill="#FFF" d="M225.875 368.974s-3.718 2.493-3.132 5.03c.587 2.537 2.724 1.34 3.072-1.385.347-2.725.06-3.645.06-3.645"/>
            <path stroke="#000" stroke-width=".5" d="M225.875 368.974s-3.718 2.493-3.132 5.03c.587 2.537 2.724 1.34 3.072-1.385.347-2.725.06-3.645.06-3.645z"/>
            <path fill="#FFF" d="M230.96 367.43s-5.886 2.017-6.007 5.635c-.121 3.617 3.179 2.774 4.62-.762 1.443-3.535 1.387-4.874 1.387-4.874"/>
            <path stroke="#000" stroke-width=".5" d="M230.96 367.43s-5.886 2.017-6.007 5.635c-.121 3.617 3.179 2.774 4.62-.762 1.443-3.535 1.387-4.874 1.387-4.874z"/>
            <path fill="#FFF" d="M229.814 369.647s-3.366 2.691-2.6 5.078c.767 2.386 2.72 1.065 2.835-1.576.115-2.642-.235-3.502-.235-3.502"/>
            <path stroke="#000" stroke-width=".5" d="M229.814 369.647s-3.366 2.691-2.6 5.078c.767 2.386 2.72 1.065 2.835-1.576.115-2.642-.235-3.502-.235-3.502z"/>
            <path fill="#FFF" d="M216.673 373.84a9.059 9.059 0 1 0 17.225 0h-17.225z"/>
            <path stroke="#000" stroke-width=".5" d="M216.673 373.84a9.059 9.059 0 1 0 17.225 0h-17.225z"/>
            <path fill="#FFF" d="M200.034 357.313l-.435.138c-.796.251-1.564.582-2.292.987L167.92 374.85"/>
            <path stroke="#000" stroke-width=".5" d="M200.034 357.313l-.435.138c-.796.251-1.564.582-2.292.987L167.92 374.85"/>
            <path stroke="#FFF" stroke-linecap="round" stroke-linejoin="round" stroke-width=".5" d="M144.963 356.802s1.369-.32 3.415.71"/>
            <path fill="#FFF" d="M154.352 364.503l-2.66-24.701a1.759 1.759 0 0 1 1.749-1.947h38.531c1.034 0 1.845.886 1.752 1.916l-2.218 24.717a.827.827 0 0 1-.823.753h-35.51a.827.827 0 0 1-.82-.738"/>
            <path stroke="#000" stroke-linecap="round" stroke-linejoin="round" stroke-width=".5" d="M154.352 364.503l-2.66-24.701a1.759 1.759 0 0 1 1.749-1.947h38.531c1.034 0 1.845.886 1.752 1.916l-2.218 24.717a.827.827 0 0 1-.823.753h-35.51a.827.827 0 0 1-.82-.738zM148.068 385.623c-2.054-1.29-5.214-10.56.889-10.242M197.127 385.623s6.846-6.074 2.63-9.446"/>
            <path fill="#FFF" d="M123.604 385.623h117.71"/>
            <path stroke="#000" stroke-linecap="round" stroke-linejoin="round" stroke-width=".5" d="M123.604 385.623h117.71M164.483 290.54s.815-1.876 2.352-2.422"/>
            <path fill="#FFF" d="M174.184 313.803c-8.095.759-8.306-8.953-8.306-8.953s-2.248.337-2.116-3.098c.106-2.739 1.949-.443 1.949-.443s-1.027-6.957 1.712-7.66c.35 2.74 2.387 4.846 7.865 4.214 5.477-.632 6.89.074 6.67 4.214-.392 7.425-1.868 10.416-5.433 11.36"/>
            <path stroke="#000" stroke-linecap="round" stroke-linejoin="round" stroke-width=".5" d="M174.184 313.803c-8.095.759-8.306-8.953-8.306-8.953s-2.248.337-2.116-3.098c.106-2.739 1.949-.443 1.949-.443s-1.027-6.957 1.712-7.66c.35 2.74 2.387 4.846 7.865 4.214 5.477-.632 6.89.074 6.67 4.214-.392 7.425-1.868 10.416-5.433 11.36M157.96 379.154s-1.695 1.246-.984 4.696M155.739 378.406s-1.813 1.204-1.101 4.654M153.4 377.69s-1.812 1.37-1.1 4.819M174.457 351.548a2.028 2.028 0 1 1-4.055 0 2.028 2.028 0 0 1 4.055 0zM182.327 339.013h9.849M153.729 339.013h25.07"/>
            <path stroke="#000" stroke-linecap="round" stroke-linejoin="round" stroke-width=".5" d="M174.507 302.084s-.11 2.103.523 3.147c.28.46.056 1.26-.624 1.714"/>
            <path fill="#000" d="M168.423 315.5s3.393-.134 5.76-1.539c-2.713-.115-5.41-1.564-5.41-1.564l-.35 3.103z"/>
            <path stroke="#000" stroke-linecap="round" stroke-linejoin="round" stroke-width=".5" d="M187.172 332.363l-.149 2.062M157.232 332.512l.264 3.439"/>
        </g>
    </g>
</svg>
