<svg width="16" height="16" viewBox="0 0 16 16" fill="none" xmlns="http://www.w3.org/2000/svg">
<mask id="mask0_9423_24519" style="mask-type:alpha" maskUnits="userSpaceOnUse" x="0" y="0" width="16" height="16">
<rect width="16" height="16" fill="#D9D9D9"/>
</mask>
<g mask="url(#mask0_9423_24519)">
<path d="M12.3762 13.25C11.1642 13.15 9.99925 12.8302 8.88131 12.2904C7.76336 11.7507 6.75119 11.0265 5.84479 10.118C4.93838 9.20944 4.22086 8.20004 3.69223 7.0898C3.16359 5.97954 2.84372 4.81844 2.73261 3.60648C2.71039 3.37132 2.77864 3.16701 2.93738 2.99357C3.09611 2.82012 3.29452 2.7334 3.53261 2.7334H5.27361C5.47532 2.7334 5.64883 2.79387 5.79413 2.91482C5.93943 3.03576 6.0407 3.19367 6.09796 3.38853L6.44668 4.78338C6.47318 4.9321 6.46484 5.0774 6.42168 5.21928C6.37852 5.36116 6.30822 5.47654 6.21078 5.56543L4.67104 7.06415C4.91891 7.52911 5.1937 7.96671 5.49541 8.37697C5.79712 8.78723 6.12771 9.17091 6.48719 9.528C6.84225 9.88288 7.22576 10.2116 7.63773 10.5142C8.04969 10.8167 8.49457 11.0919 8.97234 11.3398L10.5518 9.7975C10.645 9.70007 10.7518 9.63511 10.8723 9.60263C10.9929 9.57016 11.1275 9.56503 11.2762 9.58725L12.6108 9.88083C12.8125 9.93639 12.9721 10.039 13.0896 10.1885C13.2071 10.3381 13.2659 10.5159 13.2659 10.7219V12.45C13.2659 12.6881 13.1764 12.8865 12.9974 13.0453C12.8184 13.204 12.6113 13.2723 12.3762 13.25ZM4.28131 6.21802L5.53773 5.01288C5.55909 4.99578 5.57298 4.97228 5.57939 4.94237C5.5858 4.91244 5.58474 4.88467 5.57619 4.85903L5.28378 3.70262C5.27523 3.66843 5.26028 3.64279 5.23891 3.6257C5.21753 3.6086 5.18975 3.60005 5.15556 3.60005H3.71593C3.69029 3.60005 3.66893 3.6086 3.65183 3.6257C3.63473 3.64279 3.62618 3.66415 3.62618 3.6898C3.66036 4.11202 3.73494 4.53318 3.84989 4.95327C3.96486 5.37335 4.10866 5.79494 4.28131 6.21802ZM9.84796 11.7462C10.2465 11.9216 10.6632 12.0547 11.0982 12.1457C11.5331 12.2366 11.9369 12.3035 12.3095 12.3462C12.3352 12.3462 12.3565 12.3377 12.3736 12.3206C12.3907 12.3035 12.3993 12.2821 12.3993 12.2565V10.8206C12.3993 10.7864 12.3907 10.7586 12.3736 10.7372C12.3565 10.7159 12.3309 10.7009 12.2967 10.6923L11.2134 10.4577C11.1877 10.4492 11.1653 10.4481 11.1461 10.4545C11.1268 10.4609 11.1065 10.4748 11.0852 10.4962L9.84796 11.7462Z" fill="#555555"/>
</g>
</svg>
